<?xml version="1.0" encoding="UTF-8" standalone="no"?>
<!-- Created with Inkscape (http://www.inkscape.org/) -->

<svg
   width="512"
   height="512"
   viewBox="0 0 512 512"
   version="1.1"
   id="svg5"
   inkscape:version="1.1.1 (3bf5ae0d25, 2021-09-20, custom)"
   sodipodi:docname="logo.svg"
   xmlns:inkscape="http://www.inkscape.org/namespaces/inkscape"
   xmlns:sodipodi="http://sodipodi.sourceforge.net/DTD/sodipodi-0.dtd"
   xmlns:xlink="http://www.w3.org/1999/xlink"
   xmlns="http://www.w3.org/2000/svg"
   xmlns:svg="http://www.w3.org/2000/svg">
  <sodipodi:namedview
     id="namedview7"
     pagecolor="#ffffff"
     bordercolor="#111111"
     borderopacity="1"
     inkscape:pageshadow="0"
     inkscape:pageopacity="0"
     inkscape:pagecheckerboard="1"
     inkscape:document-units="px"
     showgrid="false"
     inkscape:zoom="5.12"
     inkscape:cx="159.375"
     inkscape:cy="506.64063"
     inkscape:window-width="1920"
     inkscape:window-height="1043"
     inkscape:window-x="0"
     inkscape:window-y="0"
     inkscape:window-maximized="1"
     inkscape:current-layer="layer1" />
  <defs
     id="defs2">
    <linearGradient
       inkscape:collect="always"
       id="linearGradient65">
      <stop
         style="stop-color:#000000;stop-opacity:1;"
         offset="0"
         id="stop61" />
      <stop
         style="stop-color:#000000;stop-opacity:0;"
         offset="1"
         id="stop63" />
    </linearGradient>
    <rect
       x="63.35196"
       y="98.323784"
       width="439.93475"
       height="413.17028"
       id="rect39135" />
    <rect
       x="129.90397"
       y="166.98154"
       width="235.17056"
       height="204.15086"
       id="rect2541" />
    <mask
       maskUnits="userSpaceOnUse"
       id="mask63934">
      <text
         xml:space="preserve"
         style="font-size:516.877px;line-height:1.25;font-family:'Hack Nerd Font';-inkscape-font-specification:'Hack Nerd Font';stroke-width:1.51429"
         x="139.73708"
         y="444.35043"
         id="text63938"><tspan
           sodipodi:role="line"
           id="tspan63936"
           x="139.73708"
           y="444.35043"
           style="stroke-width:1.51429">L</tspan></text>
    </mask>
    <linearGradient
       inkscape:collect="always"
       xlink:href="#linearGradient65"
       id="linearGradient59"
       x1="450.68088"
       y1="380.46429"
       x2="236.02667"
       y2="349.33386"
       gradientUnits="userSpaceOnUse" />
  </defs>
  <g
     inkscape:label="Layer 1"
     inkscape:groupmode="layer"
     id="layer1"
     style="display:inline">
    <text
       xml:space="preserve"
       id="text2539"
       style="font-style:normal;font-weight:normal;font-size:192px;line-height:1.25;font-family:sans-serif;white-space:pre;shape-inside:url(#rect2541);fill:#000000;fill-opacity:1;stroke:none"><tspan
         x="129.9043"
         y="541.00781"
         id="tspan8111"><tspan
           style="font-size:85.3333px;font-family:'Hack Nerd Font';-inkscape-font-specification:'Hack Nerd Font'"
           id="tspan8109">s</tspan></tspan></text>
    <text
       xml:space="preserve"
       id="text39133"
       style="font-style:normal;font-weight:normal;font-size:341.333px;line-height:1.25;font-family:sans-serif;white-space:pre;shape-inside:url(#rect39135);fill:#000000;fill-opacity:1;stroke:none"
       transform="matrix(1.5983056,0,0,1.4346871,-103.83878,-154.36803)"><tspan
         x="63.351562"
         y="400.32393"
         id="tspan8115"><tspan
           style="font-family:'Hack Nerd Font';-inkscape-font-specification:'Hack Nerd Font'"
           id="tspan8113">J</tspan></tspan></text>
    <text
       xml:space="preserve"
       style="font-style:normal;font-weight:normal;font-size:516.877px;line-height:1.25;font-family:sans-serif;fill:#4d4d4d;fill-opacity:1;stroke:none;stroke-width:1.51429"
       x="163.52782"
       y="443.12238"
       id="text55131"
       transform="scale(1.0554832,0.94743337)"
       mask="url(#mask63934)"><tspan
         sodipodi:role="line"
         id="tspan55129"
         x="163.52782"
         y="443.12238"
         style="font-style:normal;font-variant:normal;font-weight:normal;font-stretch:normal;font-size:516.877px;font-family:'Hack Nerd Font';-inkscape-font-specification:'Hack Nerd Font';stroke-width:1.51429;fill:#4d4d4d">P</tspan></text>
    <path
       style="fill:#800080;stroke-width:0.704264"
       d=""
       id="path62917" />
    <path
       style="fill:#1a1a1a;stroke-width:0.49799"
       d="m 119.51758,426.4381 c -22.047661,-1.00369 -42.304093,-4.59985 -65.473882,-11.62367 -6.46587,-1.9601 -20.248935,-6.78915 -26.28076,-9.20775 -0.815289,-0.32691 -0.871482,-2.12814 -0.871482,-27.93461 0,-15.17183 0.110258,-27.58516 0.245018,-27.58516 0.134761,0 2.802042,1.90152 5.927292,4.2256 10.934033,8.13103 26.907466,17.26979 37.93002,21.70061 27.397633,11.01321 56.699264,14.57497 81.518314,9.90893 16.01153,-3.0102 26.95411,-9.41124 33.74617,-19.7404 5.78018,-8.7903 9.21773,-21.09922 11.51811,-41.24323 0.40289,-3.52798 0.62684,-36.52276 0.76812,-113.16821 L 198.74392,103.5819 H 147.92598 97.108034 V 83.413312 63.24472 H 222.50195 c 125.92771,0 130.9366,0.06199 145.01461,1.794575 44.61952,5.491351 76.45693,24.136719 90.89714,53.233315 7.02962,14.16447 10.36924,28.36102 11.01194,46.81105 1.55648,44.68258 -15.83359,77.13077 -50.73894,94.67394 -15.27687,7.67803 -30.83746,11.9524 -54.40707,14.94518 -5.43384,0.68997 -13.3741,0.8566 -49.4255,1.03718 l -42.95163,0.21515 v 52.25459 52.2546 h 89.38919 89.38919 v 20.16859 20.16859 H 327.92636 205.17185 v -4.02541 c 0,-2.21399 -0.17416,-3.95073 -0.38703,-3.85943 -12.75523,5.47076 -18.63492,7.42043 -28.9391,9.59603 -15.42376,3.25654 -37.39203,4.78747 -56.32814,3.92543 z M 352.10744,235.90675 c 26.76902,-3.97633 45.14742,-15.45402 54.66199,-34.13758 4.63555,-9.10275 6.46852,-16.80516 6.9056,-29.01834 0.76757,-21.44847 -4.82383,-37.4191 -17.50398,-49.99631 -10.90825,-10.8197 -23.80231,-16.48687 -44.35419,-19.49447 -4.50243,-0.65889 -12.02069,-0.84089 -42.68962,-1.03341 l -37.22474,-0.23367 v 67.56584 67.56584 l 37.47374,-0.21847 c 30.61511,-0.17849 38.43599,-0.36141 42.7312,-0.99943 z"
       id="path63700" />
    <path
       style="fill:#1a1a1a;stroke-width:0.49799"
       d="m 126.48944,426.21152 c -13.72143,-0.30366 -18.95554,-0.66087 -28.459437,-1.94222 -2.094909,-0.28244 -3.999721,-0.47039 -4.232914,-0.41765 -0.233189,0.0527 -0.760122,-0.0291 -1.170964,-0.18194 -0.410842,-0.15281 -4.108417,-0.89327 -8.216834,-1.64546 -4.108416,-0.75219 -10.02641,-1.99861 -13.151097,-2.76981 -3.124686,-0.77121 -5.869856,-1.28563 -6.100376,-1.14316 -0.230521,0.14247 -0.419128,0.0414 -0.419128,-0.22458 0,-0.40689 -3.044882,-1.24445 -4.730905,-1.30133 -0.273894,-0.009 -0.610037,-0.13469 -0.746984,-0.27876 -0.136948,-0.14409 -3.050189,-1.11867 -6.473869,-2.16575 -7.219121,-2.20786 -23.89437,-8.16745 -24.704587,-8.82921 -0.884154,-0.72215 -1.311478,-18.22422 -0.912261,-37.36377 l 0.361956,-17.35309 3.04114,2.22935 c 4.771035,3.49748 15.261527,10.48914 17.731842,11.81785 1.232525,0.66295 3.025289,1.69764 3.98392,2.29931 3.417227,2.1448 13.315864,7.013 13.627026,6.70184 0.17418,-0.17418 0.316691,-0.0872 0.316691,0.19326 0,0.45973 8.378344,4.06266 10.02769,4.31221 0.373502,0.0565 0.903189,0.23439 1.177084,0.39528 2.391397,1.4048 20.056559,6.20813 26.209077,7.1265 0.9231,0.13779 3.91931,0.60699 6.65826,1.04266 7.85778,1.24992 26.36602,1.51888 34.71263,0.50444 8.3646,-1.01662 15.37243,-2.67398 21.13989,-4.99961 4.52525,-1.82473 9.63315,-4.65873 9.63315,-5.34473 0,-0.21602 0.3288,-0.39277 0.73067,-0.39277 1.91065,0 12.35762,-12.38502 11.84358,-14.04071 -0.0685,-0.22055 0.11282,-0.401 0.40288,-0.401 0.29006,0 0.38888,-0.22409 0.2196,-0.49799 -0.16927,-0.27389 -0.10251,-0.49799 0.14836,-0.49799 1.3433,0 6.22352,-16.6762 7.28673,-24.89949 0.12395,-0.95863 0.58092,-4.19935 1.0155,-7.20161 0.43459,-3.00225 0.78585,-6.25163 0.78059,-7.22085 -0.032,-5.89869 0.50723,-168.85166 0.63245,-191.12288 l 0.1519,-27.01596 H 148.05537 97.108034 V 83.331137 63.08037 l 124.870976,0.34415 c 68.67903,0.189283 128.48097,0.550891 132.8932,0.803574 14.64782,0.838863 29.54117,3.320356 41.00041,6.831384 3.16594,0.970022 6.09239,1.793459 6.50324,1.829861 0.41084,0.0364 0.85903,0.178387 0.99598,0.315524 0.13694,0.137137 2.1538,1.010607 4.4819,1.941044 34.82156,13.916598 54.29629,38.077023 60.05146,74.500063 1.11886,7.08094 1.50908,26.85869 0.6789,34.40897 -0.3585,3.26052 -0.69687,6.48845 -0.75193,7.17319 -0.0551,0.68474 -0.21799,1.58112 -0.36206,1.99196 -0.14407,0.41084 -0.54726,2.2036 -0.89599,3.98392 -0.34872,1.78031 -1.38897,5.70198 -2.31167,8.71482 -0.92269,3.01284 -1.72289,5.81403 -1.77822,6.22488 -0.0553,0.41084 -0.27337,0.97108 -0.48453,1.24497 -0.21118,0.2739 -1.61778,3.04444 -3.1258,6.15677 -12.98345,26.79608 -39.53256,44.91424 -76.01298,51.87428 -3.09846,0.59115 -5.9697,1.20128 -6.38054,1.35584 -0.41084,0.15456 -0.9113,0.2467 -1.11212,0.20475 -0.20083,-0.0419 -3.40648,0.37066 -7.12367,0.91692 -3.71719,0.54626 -8.76311,0.9932 -11.21313,0.9932 -2.45003,0 -4.45454,0.16807 -4.45446,0.37349 7e-5,0.20542 -10.47639,0.30204 -23.28103,0.21472 -12.80464,-0.0873 -30.95643,-0.005 -40.33732,0.18228 l -17.05615,0.34105 v 52.23116 52.23116 h 89.38919 89.38919 v 20.16859 20.16859 H 327.92636 205.17185 v -3.70553 c 0,-2.03804 -0.19707,-3.82733 -0.43794,-3.97619 -0.52143,-0.32227 -10.19466,3.62753 -10.43588,4.2612 -0.0919,0.24134 -0.33305,0.33618 -0.53597,0.21077 -0.20292,-0.12542 -2.74924,0.54382 -5.65848,1.4872 -5.24006,1.69918 -17.4922,4.37734 -22.77093,4.97744 -1.50642,0.17125 -3.07508,0.42336 -3.48593,0.56022 -0.41084,0.13688 -1.97951,0.3333 -3.48593,0.43651 -6.76235,0.4633 -16.59268,1.25917 -16.87272,1.36603 -0.16936,0.0646 -6.91874,-0.0288 -14.99863,-0.20761 z M 330.16732,236.78905 c 14.24352,-0.18418 20.76975,-0.45692 23.65452,-0.98856 2.19115,-0.40381 4.65621,-0.84482 5.47791,-0.98002 3.40636,-0.56047 12.43165,-3.36163 16.54536,-5.13514 11.82828,-5.09945 20.30144,-11.65421 26.70576,-20.65933 2.2284,-3.13336 5.77519,-9.28903 6.02021,-10.44846 0.0728,-0.3446 0.50194,-1.46087 0.95359,-2.48059 0.45165,-1.01973 0.89849,-2.25225 0.99298,-2.73895 0.0945,-0.48669 0.42129,-1.49245 0.72623,-2.23502 0.30493,-0.74256 0.95035,-3.31966 1.43427,-5.72688 1.06905,-5.3179 1.23394,-26.11538 0.24001,-30.27224 -0.32745,-1.36947 -0.70223,-3.18266 -0.83286,-4.02931 -0.69334,-4.49402 -5.6561,-16.30187 -7.83415,-18.63973 -0.48362,-0.51911 -0.87931,-1.08903 -0.87931,-1.26649 0,-0.5988 -3.15548,-4.42846 -6.44354,-7.82022 -6.28813,-6.48645 -13.15207,-11.05819 -21.74999,-14.48662 -4.50472,-1.79627 -14.5464,-4.53171 -18.36853,-5.00375 -1.09558,-0.1353 -3.36219,-0.48132 -5.03692,-0.76892 -1.67472,-0.2876 -3.57953,-0.51243 -4.23291,-0.49962 -0.65338,0.0128 -8.35902,-0.0957 -17.12364,-0.24123 -8.76462,-0.14549 -25.51576,-0.37041 -37.22474,-0.49981 l -21.28907,-0.23528 v 67.92599 67.92599 l 19.29711,-0.22073 c 10.61341,-0.1214 28.14888,-0.33519 38.96771,-0.47508 z"
       id="path63739" />
    <path
       style="fill:url(#linearGradient59);stroke-width:0.5;fill-opacity:1"
       d="m 112.5,425.92313 c -1.5125,-0.20194 -6.125,-0.72844 -10.25,-1.17 -12.10788,-1.2961 -27.73089,-4.33291 -39.987823,-7.77285 -2.743302,-0.76991 -5.162052,-1.29216 -5.375,-1.16055 -0.212947,0.1316 -0.387177,0.0435 -0.387177,-0.1957 0,-0.38753 -4.478367,-1.83953 -5.75,-1.86429 -0.275,-0.005 -0.6125,-0.14312 -0.75,-0.30613 -0.435758,-0.51662 -6.613013,-2.44278 -7.022475,-2.18972 -0.215663,0.13328 -0.467582,0.0604 -0.55982,-0.16193 -0.09224,-0.22235 -3.456303,-1.59193 -7.475699,-3.04351 l -7.307994,-2.63925 -0.317006,-3.03295 c -0.404359,-3.86869 -0.406571,-47.52804 -0.0025,-49.97151 l 0.303468,-1.83525 4.316029,3.11656 c 2.373815,1.71411 6.009939,4.22748 8.080274,5.58526 5.155843,3.38133 5.627697,3.67674 6.485754,4.0604 0.4125,0.18444 0.8625,0.48211 1,0.66148 0.492945,0.64308 10.368375,6.00327 16.5,8.95589 9.16817,4.41484 23.230169,9.35325 29.499999,10.36007 0.9625,0.15456 2.0875,0.4592 2.5,0.67698 0.4125,0.21777 1.5375,0.50966 2.5,0.64862 0.9625,0.13897 2.7625,0.48654 4,0.77239 1.2375,0.28584 3.15,0.63315 4.25,0.77179 1.1,0.13864 3.9125,0.53703 6.25,0.8853 6.63332,0.98834 29.04423,0.824 35,-0.25664 2.6125,-0.47403 5.425,-0.97994 6.25,-1.12426 3.18947,-0.55791 7.53172,-1.80896 8.20184,-2.36303 0.38602,-0.31917 0.77977,-0.52405 0.875,-0.4553 0.0952,0.0688 0.22941,0.10778 0.29816,0.0867 0.0687,-0.0211 0.52432,-0.11445 1.01239,-0.20757 1.50037,-0.28629 8.86261,-3.88576 8.86261,-4.33302 0,-0.23163 0.24001,-0.42115 0.53336,-0.42115 2.57942,0 13.42801,-11.88356 14.76617,-16.17489 0.18439,-0.59131 0.48954,-1.18761 0.67812,-1.32511 0.40966,-0.29871 2.87915,-6.44032 3.25291,-8.08997 0.14455,-0.63802 0.80261,-3.19919 1.46235,-5.6915 0.65974,-2.4923 1.3366,-5.5298 1.50413,-6.75 0.16754,-1.22019 0.41815,-2.78103 0.55692,-3.46853 0.13877,-0.6875 0.34783,-1.925 0.46457,-2.75 0.11674,-0.825 0.44036,-3.075 0.71915,-5 0.81787,-5.64713 1.03981,-26.91832 1.34471,-128.875 L 199.0706,103.5 H 148.2853 97.5 l -7e-5,-20.125 -7e-5,-20.125 128.37507,0.302188 c 126.62516,0.298069 131.54915,0.365206 143.16554,1.952013 45.15467,6.168157 76.14693,25.084322 90.10515,54.995799 6.0116,12.88245 8.93876,25.39111 9.80775,41.91168 1.73216,32.93053 -6.6824,59.35407 -24.91712,78.24509 -8.0707,8.36119 -15.4711,13.78709 -26.05229,19.10128 -13.54805,6.80424 -30.08828,11.4733 -50.66555,14.30212 -7.05218,0.96948 -10.46726,1.05501 -50.06841,1.25383 -23.375,0.11736 -43.23125,0.32991 -44.125,0.47234 l -1.625,0.25897 V 328.27265 380.5 h 89.5 89.5 v 20 20 H 328.05642 205.61284 l -0.19625,-3.47316 c -0.10794,-1.91024 -0.34466,-3.62157 -0.52604,-3.80296 C 204.4578,412.79114 200,414.49891 200,415.09743 c 0,0.25387 -0.2008,0.33748 -0.44622,0.18581 -0.24542,-0.15168 -1.65686,0.25962 -3.13653,0.914 -3.10712,1.37412 -11.08844,3.87741 -16.16725,5.07075 -1.925,0.45231 -3.8375,0.94348 -4.25,1.09149 -0.4125,0.14801 -1.2,0.31741 -1.75,0.37643 -0.55,0.059 -4.2625,0.5926 -8.25,1.18572 -3.9875,0.59311 -9.725,1.33869 -12.75,1.65683 -6.19735,0.65177 -36.52828,0.90832 -40.75,0.34467 z M 345.75,236.47425 c 16.04007,-0.93405 30.57428,-5.48863 42.32856,-13.2645 5.16291,-3.41545 12.24076,-10.59068 15.6931,-15.90905 6.15968,-9.48902 8.94594,-18.2662 9.77748,-30.8007 1.346,-20.28929 -2.30367,-35.19555 -11.62998,-47.5 -9.11417,-12.02456 -21.51714,-19.71519 -38.19006,-23.68025 -12.05858,-2.8677 -12.45713,-2.89124 -53.8541,-3.18051 L 271.5,101.87109 v 67.78972 67.78972 l 33.125,-0.25521 c 18.21875,-0.14037 36.725,-0.46485 41.125,-0.72107 z"
       id="path64049" />
  </g>
</svg>
